<?xml version="1.0" encoding="UTF-8"?>
<svg version="1.1" xmlns="http://www.w3.org/2000/svg" width="519" height="2030">
<path d="M0 0 C29.89517555 6.83815016 59.71855078 13.94328598 89.52764893 21.14599609 C98.88728637 23.40724184 108.24761602 25.66562076 117.60810471 27.92333984 C119.88143574 28.47170399 122.15473371 29.0202052 124.42799759 29.56884766 C140.93134405 33.55138643 157.44345115 37.49498899 173.97145081 41.37402344 C174.70582682 41.54687866 175.44020283 41.71973389 176.19683266 41.89782715 C178.14000149 42.35514205 180.08352813 42.81093584 182.02708435 43.26660156 C185 44 185 44 188 45 C188 56.22 188 67.44 188 79 C173.9840387 83.08638288 159.93732534 86.86122315 145.76381493 90.35777855 C142.3859104 91.19130173 139.00927079 92.02979302 135.63288879 92.86946106 C127.26848262 94.94868817 118.90232659 97.02083042 110.53570557 99.09112549 C103.41214633 100.85389002 96.28953018 102.62036656 89.16823769 104.39226723 C85.85445605 105.21519923 82.53934585 106.0326179 79.22416687 106.84989929 C77.18998019 107.35561218 75.15586285 107.86160407 73.12182617 108.36791992 C72.21110352 108.59082703 71.30038086 108.81373413 70.36206055 109.043396 C65.07512372 110.36692683 60.06742528 111.99027454 55 114 C66.87188567 117.00781426 78.74410726 120.01430059 90.61653519 123.01997375 C93.48525274 123.74626634 96.35394091 124.47267487 99.22262573 125.19909668 C126.66705188 132.14981475 126.66705188 132.14981475 154.12890625 139.03125 C155.27527557 139.31695862 156.4216449 139.60266724 157.60275269 139.89703369 C162.72246167 141.17203036 167.84305738 142.443336 172.96484375 143.70996094 C174.71745225 144.14516485 176.47005672 144.58038497 178.22265625 145.015625 C178.99879776 145.2062854 179.77493927 145.3969458 180.57460022 145.59338379 C185.77399697 146.88699849 185.77399697 146.88699849 188 148 C188 158.89 188 169.78 188 181 C176.22514846 184.30982587 164.43360853 187.46467176 152.56640625 190.4230957 C150.91179657 190.83742812 149.25723674 191.25195971 147.60272217 191.66667175 C143.17458527 192.7759547 138.745727 193.88232982 134.31668472 194.98799157 C129.66218386 196.15033832 125.00826415 197.31500796 120.35424805 198.47929382 C112.56145662 200.42839624 104.76817639 202.37553451 96.97460938 204.3215332 C87.96107785 206.57218043 78.94840876 208.82625623 69.93616581 211.0820573 C62.17575843 213.02442423 54.4148964 214.96496619 46.65364742 216.90396756 C42.02692056 218.05986962 37.40035526 219.21640794 32.77420044 220.37459755 C28.44078746 221.45938997 24.10681004 222.54189703 19.77237701 223.62260628 C18.17978976 224.02008986 16.58740402 224.41838183 14.99523163 224.81752396 C12.82979392 225.36024094 10.6636592 225.90008017 8.49731445 226.43916321 C6.67681328 226.89400573 6.67681328 226.89400573 4.8195343 227.35803699 C2 228 2 228 0 228 C0 215.79 0 203.58 0 191 C9.30139674 188.67465081 18.55231694 186.36769037 27.9140625 184.34277344 C28.98929169 184.10810364 30.06452087 183.87343384 31.17233276 183.63165283 C34.65605657 182.87191666 38.14051368 182.11560544 41.625 181.359375 C44.06840593 180.82721975 46.51176452 180.29484706 48.95507812 179.76226807 C55.33306778 178.37263467 61.71168913 176.98592306 68.0904541 175.59985352 C74.6206469 174.18060827 81.15011084 172.75801411 87.6796875 171.3359375 C100.45253295 168.55456689 113.22602802 165.77619197 126 163 C120.3028301 160.88052939 114.46141494 159.77383263 108.51855469 158.58569336 C106.79567734 158.23653618 106.79567734 158.23653618 105.03799438 157.88032532 C102.55021225 157.37667435 100.06207693 156.87476544 97.57363129 156.374403 C93.64012613 155.58345973 89.7075421 154.78808379 85.77520752 153.99134827 C78.14380925 152.44592203 70.51129996 150.90602839 62.87864685 149.36681366 C53.14843803 147.40438783 43.41867182 145.43978686 33.69004369 143.46953875 C29.14859387 142.55003172 24.60621865 141.63518536 20.06365967 140.72117615 C17.69703069 140.24257711 15.33043154 139.76383058 12.96386719 139.28491211 C11.3337117 138.95839157 11.3337117 138.95839157 9.67062378 138.62527466 C8.19020096 138.3246386 8.19020096 138.3246386 6.67987061 138.01792908 C5.81933453 137.84446425 4.95879845 137.67099943 4.07218552 137.4922781 C2 137 2 137 0 136 C0 120.82 0 105.64 0 90 C25.39576321 83.75399132 50.89827342 78.02524263 76.42034912 72.32098389 C82.14065399 71.04192549 87.86033607 69.76008805 93.58007812 68.47851562 C104.71945963 65.98302577 115.85950459 63.49051203 127 61 C112.59588621 57.64970014 98.15616295 54.53747799 83.65988922 51.6128006 C80.29656805 50.93414609 76.93394854 50.25210207 73.57147217 49.5692749 C65.24901048 47.87986702 56.92547128 46.19579517 48.60186768 44.51202393 C41.50334295 43.07590484 34.40528036 41.63754316 27.3078537 40.19600677 C23.99444887 39.52400601 20.6803769 38.85536678 17.36627197 38.18682861 C15.35514917 37.77869496 13.34405924 37.37039926 11.33300781 36.96191406 C10.41163528 36.77699905 9.49026276 36.59208405 8.54096985 36.40156555 C7.70335617 36.23071945 6.86574249 36.05987335 6.00274658 35.8838501 C4.90903685 35.66268209 4.90903685 35.66268209 3.79323196 35.43704605 C2 35 2 35 0 34 C0 22.78 0 11.56 0 0 Z " fill="#0000DD" transform="translate(25,1232)"/>
<path d="M0 0 C0.70721317 -0.00282738 1.41442635 -0.00565475 2.14307022 -0.00856781 C5.89323537 -0.02348639 9.64336285 -0.03275946 13.39355469 -0.03710938 C16.45194548 -0.04147608 19.51005132 -0.05530732 22.56835938 -0.078125 C76.40215745 -0.47172645 76.40215745 -0.47172645 95.1328125 16.203125 C110.62601065 31.89495389 115.39095512 51.49890673 115.3815918 72.93530273 C115.17950245 89.7436114 111.55530369 105.39308607 100.1328125 118.203125 C99.34970703 119.12544922 99.34970703 119.12544922 98.55078125 120.06640625 C86.14808197 133.67618088 66.80526761 138.06828096 49.1328125 139.203125 C40.25198063 139.53397297 31.36599469 139.53488349 22.48022461 139.51879883 C19.71215567 139.51416764 16.9445261 139.52109872 14.17651367 139.53930664 C-40.20115106 139.8936337 -40.20115106 139.8936337 -60.6796875 120.890625 C-66.92802388 114.19384343 -71.05077401 105.85264376 -73.8671875 97.203125 C-74.31771484 95.82060547 -74.31771484 95.82060547 -74.77734375 94.41015625 C-80.23789154 73.9648494 -78.71834501 49.03772148 -68.8671875 30.203125 C-59.76757078 15.47971082 -46.76538619 6.31646799 -29.9296875 2.265625 C-19.97537811 0.24260923 -10.12080906 0.02762152 0 0 Z M-38.8671875 48.203125 C-45.5083544 56.93151579 -46.67317608 66.71221023 -45.2421875 77.390625 C-43.82008871 84.70969344 -40.69665619 90.5482019 -34.640625 95.11328125 C-23.13661215 102.18292791 -9.456417 102.51439984 3.66796875 102.46875 C4.90848495 102.47066345 6.14900116 102.4725769 7.42710876 102.47454834 C10.02961431 102.4758995 12.63212684 102.4722785 15.23461914 102.46386719 C19.18846951 102.45314356 23.14186655 102.46380423 27.09570312 102.4765625 C29.64062599 102.47524089 32.18554857 102.47267848 34.73046875 102.46875 C36.47941185 102.47482269 36.47941185 102.47482269 38.26368713 102.48101807 C51.78267663 102.40480845 66.23033014 101.09974266 76.4375 91.28515625 C82.94379623 83.29470489 83.08767473 72.97894158 82.36035156 63.13720703 C81.83702119 58.68889885 80.41946302 55.02139993 78.1328125 51.203125 C77.74351562 50.54957031 77.35421875 49.89601563 76.953125 49.22265625 C71.49083202 41.64332073 61.85934032 39.33915739 53.10772705 37.63169861 C47.45484526 36.81733036 41.78726643 36.89822186 36.0859375 36.90234375 C34.74371207 36.89844329 33.40148784 36.89410592 32.05926514 36.88935852 C29.25887029 36.88194369 26.45860159 36.88215196 23.65820312 36.88745117 C20.11057103 36.89322709 16.56346423 36.87633754 13.01591873 36.8531065 C10.24624734 36.83820351 7.4766975 36.83751983 4.7069931 36.84061623 C2.77641995 36.83986909 0.84586535 36.8261302 -1.08465576 36.81193542 C-14.53817495 36.88130832 -28.70140563 38.60210879 -38.8671875 48.203125 Z " fill="#0000DD" transform="translate(99.8671875,1491.796875)"/>
<path d="M0 0 C61.71 0 123.42 0 187 0 C187 7.59 187 15.18 187 23 C178.32563089 30.00889024 178.32563089 30.00889024 173.9609375 31.98046875 C167.60421148 35.07069318 161.88202394 38.93718188 156.07067871 42.92297363 C153.16392484 44.91025443 150.23467986 46.86361624 147.3046875 48.81640625 C146.20995117 49.54617676 145.11521484 50.27594727 143.98730469 51.02783203 C139.75188718 53.82398295 135.45747451 56.51256037 131.13500977 59.17114258 C124.76617061 63.10466646 118.50986273 67.20852221 112.25 71.3125 C111.6882608 71.68073883 111.12652161 72.04897766 110.54776001 72.42837524 C107.7493152 74.26315649 104.95125749 76.09852671 102.15332031 77.93408203 C97.65104564 80.88377608 93.13924611 83.81867136 88.625 86.75 C87.82497559 87.26981445 87.02495117 87.78962891 86.20068359 88.32519531 C82.11994363 90.97605991 78.03728129 93.62393347 73.953125 96.26953125 C73.10282715 96.82092773 72.2525293 97.37232422 71.37646484 97.94042969 C69.80971743 98.95638419 68.24242134 99.97149361 66.67431641 100.98535156 C58.05913954 106.5738783 49.54676802 112.30215466 41 118 C89.18 118.33 137.36 118.66 187 119 C187 125.93 187 132.86 187 140 C125.29 140 63.58 140 0 140 C0 119 0 119 4.34375 114.6171875 C6.20683839 113.69807262 8.09363497 112.82561665 10 112 C11.71799072 110.90857831 13.41622532 109.78546352 15.09375 108.6328125 C16.89476399 107.46189524 18.69689643 106.29269694 20.5 105.125 C22.53527329 103.80226341 24.5704249 102.47933957 26.60546875 101.15625 C28.18013916 100.13337891 28.18013916 100.13337891 29.78662109 99.08984375 C35.13504948 95.61145544 40.47359913 92.11798717 45.8125 88.625 C48.00649843 87.19008585 50.20050892 85.75519012 52.39453125 84.3203125 C54.03156006 83.24958496 54.03156006 83.24958496 55.70166016 82.15722656 C61.1340672 78.60424739 66.56706056 75.052165 72 71.5 C74.16666953 70.08333772 76.3333362 68.66667105 78.5 67.25 C91.5 58.75 91.5 58.75 94.75415039 56.62231445 C96.90701687 55.2146523 99.05984926 53.806938 101.21264648 52.39916992 C106.24453468 49.10878112 111.27674171 45.81888358 116.31021118 42.53091431 C118.66226779 40.99445364 121.0141244 39.45768697 123.3659668 37.92089844 C125.00615387 36.8493127 126.64662656 35.77816418 128.28710938 34.70703125 C129.29708984 34.04703125 130.30707031 33.38703125 131.34765625 32.70703125 C132.22429932 32.1344458 133.10094238 31.56186035 134.00415039 30.97192383 C138.01444525 28.33227331 142.00527292 25.66315138 146 23 C97.82 22.67 49.64 22.34 0 22 C0 14.74 0 7.48 0 0 Z " fill="#0000DC" transform="translate(307,323)"/>
<path d="M0 0 C61.71 0 123.42 0 187 0 C187 22 187 22 183.25 26.0625 C181.17723718 27.0638488 179.09167044 28.03877167 177 29 C173.81940675 30.95757067 170.73095953 33.05166728 167.625 35.125 C165.86911704 36.26599572 164.11126834 37.40397151 162.3515625 38.5390625 C157.22875244 41.85075931 152.11350281 45.17395611 147 48.5 C145.33337056 49.5833906 143.66670382 50.66672382 142 51.75 C141.175 52.28625 140.35 52.8225 139.5 53.375 C137 55 134.5 56.625 132 58.25 C131.1747583 58.78641113 130.3495166 59.32282227 129.49926758 59.87548828 C127.8350572 60.9572169 126.17083197 62.03892268 124.5065918 63.12060547 C120.30222105 65.85330245 116.09812086 68.58641405 111.89453125 71.3203125 C103.41141363 76.83694114 94.92385458 82.34650231 86.42626953 87.84082031 C79.52047016 92.30728976 72.62501019 96.78961631 65.73046875 101.2734375 C57.15458033 106.85039561 48.57709067 112.42489107 40 118 C88.51 118.33 137.02 118.66 187 119 C187 125.93 187 132.86 187 140 C125.29 140 63.58 140 0 140 C0 132.74 0 125.48 0 118 C7.88610943 111.57945073 7.88610943 111.57945073 11.54296875 110.05078125 C15.64861315 108.21370012 19.1992237 106.01148915 22.875 103.4375 C24.11388803 102.60120011 25.35490582 101.76804947 26.59765625 100.9375 C27.28102051 100.47988281 27.96438477 100.02226563 28.66845703 99.55078125 C33.53043764 96.31692776 38.42356964 93.1303958 43.3125 89.9375 C43.8673407 89.57510223 44.4221814 89.21270447 44.99383545 88.83932495 C47.85322263 86.971761 50.71290318 85.10464698 53.57275391 83.23779297 C59.05054053 79.66164652 64.52505239 76.0804906 70 72.5 C72.16665232 71.08331139 74.33331901 69.66664476 76.5 68.25 C77.5725 67.54875 78.645 66.8475 79.75 66.125 C83 64 86.25 61.875 89.5 59.75 C90.5737085 59.04794434 91.64741699 58.34588867 92.75366211 57.62255859 C94.90806434 56.21394214 97.06252345 54.80541269 99.21704102 53.39697266 C104.23196396 50.11849573 109.24636628 46.83923264 114.25863647 43.55670166 C116.59089286 42.02938902 118.9234865 40.50259187 121.25610352 38.97583008 C122.87483801 37.91602555 124.49309279 36.85548842 126.11132812 35.79492188 C127.11486328 35.13814453 128.11839844 34.48136719 129.15234375 33.8046875 C130.01851318 33.23733887 130.88468262 32.66999023 131.77709961 32.08544922 C136.50023881 29.02923719 141.25381541 26.02029928 146 23 C97.82 22.67 49.64 22.34 0 22 C0 14.74 0 7.48 0 0 Z " fill="#0000DC" transform="translate(307,1627)"/>
<path d="M0 0 C10.23 0 20.46 0 31 0 C31 28.05 31 56.1 31 85 C46.84 85 62.68 85 79 85 C79 60.91 79 36.82 79 12 C89.23 12 99.46 12 110 12 C110 36.09 110 60.18 110 85 C135.74 85 161.48 85 188 85 C188 96.88 188 108.76 188 121 C125.96 121 63.92 121 0 121 C0 81.07 0 41.14 0 0 Z " fill="#0000DD" transform="translate(25,1823)"/>
<path d="M0 0 C61.71 0 123.42 0 187 0 C187 22 187 22 181.125 28.00390625 C179.0859375 29.40380859 179.0859375 29.40380859 177.25 30.33203125 C176.5590625 30.69506348 175.868125 31.0580957 175.15625 31.43212891 C174.4446875 31.80515137 173.733125 32.17817383 173 32.5625 C171.53663423 33.4106468 170.07835697 34.26762703 168.625 35.1328125 C165.60700988 36.92029428 162.57086341 38.66813384 159.515625 40.39111328 C153.13859404 44.02567376 147.06468372 48.10402659 140.96859741 52.1859436 C137.65553342 54.39744348 134.32081615 56.57581521 130.98828125 58.7578125 C129.6543607 59.63298725 128.32053893 60.50831256 126.98681641 61.38378906 C123.02652316 63.98265962 119.06600446 66.58118647 115.10546875 69.1796875 C107.78335152 73.98379054 100.46185682 78.78884135 93.14086914 83.59466553 C91.67588444 84.55632799 90.21087684 85.51795556 88.74584961 86.47955322 C84.0671648 89.55051084 79.38887993 92.62207627 74.71109009 95.69439697 C73.22681289 96.66914558 71.74242263 97.64372207 70.25790405 98.61810303 C68.17030137 99.98838589 66.08315188 101.35935667 63.99609375 102.73046875 C63.40959045 103.1152388 62.82308716 103.50000885 62.21881104 103.8964386 C55.12140246 108.5614017 48.06729078 113.28847281 41 118 C89.18 118.33 137.36 118.66 187 119 C187 125.93 187 132.86 187 140 C125.29 140 63.58 140 0 140 C0 133.07 0 126.14 0 119 C7.09753633 111.95503802 7.09753633 111.95503802 10.56762695 110.09228516 C11.32838531 109.67070129 12.08914368 109.24911743 12.87295532 108.8147583 C14.04959244 108.16395294 14.04959244 108.16395294 15.25 107.5 C16.85931754 106.53335021 18.46364394 105.55834907 20.06323242 104.57568359 C23.50738686 102.46800732 26.97068603 100.39789419 30.44873047 98.34667969 C39.31855578 93.06194984 47.85847241 87.26257551 56.44494629 81.53393555 C61.00919863 78.49550474 65.59330908 75.48741038 70.17578125 72.4765625 C75.92473246 68.69353495 81.6652055 64.89861613 87.38671875 61.07421875 C93.52114763 56.97398156 99.67958346 52.91084578 105.84375 48.85546875 C106.79207199 48.23144165 107.74039398 47.60741455 108.717453 46.96447754 C112.64341691 44.38144834 116.56966579 41.79885598 120.49707031 39.21801758 C123.40510679 37.30672943 126.31200951 35.39372709 129.21875 33.48046875 C130.09801147 32.90330612 130.97727295 32.32614349 131.88317871 31.73149109 C132.71514771 31.18354385 133.5471167 30.63559662 134.40429688 30.07104492 C135.12516479 29.59712814 135.84603271 29.12321136 136.58874512 28.63493347 C139.76563944 26.48086386 142.87663341 24.23097614 146 22 C97.82 21.67 49.64 21.34 0 21 C0 14.07 0 7.14 0 0 Z " fill="#0000DD" transform="translate(307,1145)"/>
<path d="M0 0 C0 7.92 0 15.84 0 24 C-12.69803587 30.99687691 -25.45861574 37.82748065 -38.35314941 44.45205688 C-48.52898513 49.68308607 -58.60249413 55.08268272 -68.62109375 60.609375 C-78.44749273 66 -78.44749273 66 -81 66 C-81 81.18 -81 96.36 -81 112 C-54.27 112 -27.54 112 0 112 C0 118.93 0 125.86 0 133 C-61.71 133 -123.42 133 -187 133 C-187 31.45651455 -187 31.45651455 -172.7109375 16.44921875 C-158.65933152 4.54705935 -141.63122052 2.97497176 -124 4 C-120.08889944 4.57027528 -116.65557866 5.51492117 -113 7 C-112.154375 7.32871094 -111.30875 7.65742187 -110.4375 7.99609375 C-98.55083877 13.23274786 -91.17628417 23.4022774 -86 35 C-84.91362341 37.97474422 -83.92927731 40.97276978 -83 44 C-82.50113281 43.72551025 -82.00226563 43.45102051 -81.48828125 43.16821289 C-68.69326473 36.13755806 -55.83382372 29.23768899 -42.93243408 22.40499878 C-33.15787292 17.22705826 -23.4147311 11.9973705 -13.72265625 6.66601562 C-1.59031431 0 -1.59031431 0 0 0 Z M-160 34 C-168.51269262 43.90251999 -169.45469334 55.15866176 -169.29296875 67.76171875 C-169.28994751 68.89081665 -169.28692627 70.01991455 -169.28381348 71.18322754 C-169.26826316 75.35141299 -169.22638069 79.51946688 -169.1875 83.6875 C-169.125625 93.030625 -169.06375 102.37375 -169 112 C-145.9 112 -122.8 112 -99 112 C-98.95875 103.316875 -98.9175 94.63375 -98.875 85.6875 C-98.85679199 82.96846436 -98.83858398 80.24942871 -98.81982422 77.44799805 C-98.81397575 75.26090695 -98.80888103 73.07381365 -98.8046875 70.88671875 C-98.79445557 69.77703735 -98.78422363 68.66735596 -98.77368164 67.52404785 C-98.77125426 56.52679258 -99.85105194 47.29886931 -106 38 C-106.5775 37.113125 -107.155 36.22625 -107.75 35.3125 C-113.96039399 28.92959507 -120.89985327 25.40031733 -129.83203125 24.69921875 C-141.47490416 24.6649414 -151.32623958 25.47546557 -160 34 Z " fill="#0000DC" transform="translate(494,606)"/>
<path d="M0 0 C9.1265625 -0.0928125 9.1265625 -0.0928125 18.4375 -0.1875 C20.31880615 -0.21481201 22.2001123 -0.24212402 24.13842773 -0.27026367 C44.67833934 -0.442918 65.71423004 2.23710471 81.18359375 17.09765625 C97.00065496 34.05091468 98.78834785 53.52348212 98.17919922 75.72558594 C97.33353558 91.17795746 90.76301754 105.88916502 80 117 C59.42708713 135.31535429 30.19136254 133.47763593 4.51104736 133.3225708 C1.49221525 133.30912479 -1.5264666 133.31431908 -4.54531479 133.31969929 C-7.50373753 133.32307717 -10.46207283 133.31633964 -13.42047882 133.30657005 C-14.80920196 133.30278946 -16.19793494 133.30153919 -17.58666229 133.3031559 C-38.49558724 133.30723225 -60.9005583 130.75807935 -76.875 115.8125 C-91.55210697 99.84509791 -94.75779734 79.43102908 -94.140625 58.51660156 C-93.15179516 40.82066752 -85.89443776 25.22043327 -73.125 13 C-62.2093663 3.83086769 -49.00260173 1 -35 1 C-35 7.93 -35 14.86 -35 22 C-37.454375 22.391875 -39.90875 22.78375 -42.4375 23.1875 C-49.03238181 24.35192964 -54.51113703 26.00501314 -60 30 C-60.82757813 30.57492187 -61.65515625 31.14984375 -62.5078125 31.7421875 C-65.50572931 34.45816856 -66.91193306 37.0605554 -68.6875 40.6875 C-69.26886719 41.84636719 -69.85023438 43.00523438 -70.44921875 44.19921875 C-75.57935546 55.88401568 -76.11814692 71.55346539 -72.375 83.6875 C-68.14082583 94.18410659 -62.12127075 101.02218529 -52.0625 106.1875 C-35.83685243 112.50819243 -18.02383869 111.46932378 -0.91601562 111.39111328 C2.87010645 111.37399304 6.65559138 111.3839153 10.44169044 111.40183067 C13.4087077 111.41279175 16.37557958 111.40916708 19.34260178 111.4014473 C20.73691259 111.39948072 22.13123769 111.40177593 23.52553177 111.40888596 C39.16898232 111.47122618 55.84754112 109.7739625 67.9375 98.75 C76.86870704 88.77573228 79.58499343 75.3739055 78.9375 62.3125 C78.11771743 50.95844802 74.49070553 40.39084852 66.22265625 32.25 C57.87036551 25.41786033 47.52500696 23.0653353 36.9453125 22.68359375 C35.94516113 22.64548584 34.94500977 22.60737793 33.91455078 22.56811523 C32.66399902 22.52501221 31.41344727 22.48190918 30.125 22.4375 C26.12375 22.293125 22.1225 22.14875 18 22 C18 36.85 18 51.7 18 67 C12.06 67 6.12 67 0 67 C0 44.89 0 22.78 0 0 Z " fill="#0000DD" transform="translate(398,1434)"/>
<path d="M0 0 C62.73779297 0 62.73779297 0 80.31640625 16.1875 C95.6221469 32.6651419 98.82723635 50.95785754 98.34375 72.66015625 C97.6394457 89.66658973 91.59392645 105.36759333 79.5859375 117.6640625 C63.93481584 131.80208478 42.20675297 133.32149364 22.10546875 133.30078125 C20.50327954 133.30468259 18.90109135 133.30902013 17.29890442 133.31376648 C13.95989614 133.32117384 10.6209937 133.32097791 7.28198242 133.31567383 C3.0497343 133.30988971 -1.18207467 133.32681153 -5.41425037 133.3500185 C-8.71842385 133.36490904 -12.0224953 133.36560694 -15.3266964 133.36250877 C-16.88486283 133.36301444 -18.44303617 133.3681062 -20.0011692 133.37832069 C-38.98649142 133.4875351 -57.41188298 130.6746446 -73 119 C-73.86625 118.4225 -74.7325 117.845 -75.625 117.25 C-87.80475464 105.71128508 -93.66100923 87.91750305 -94.203125 71.46875 C-94.53203811 50.9856859 -90.70643289 32.91907062 -76.984375 17.04296875 C-65.66461594 5.38896484 -50.713282 1.97195559 -35 1 C-35 7.93 -35 14.86 -35 22 C-37.26875 22.391875 -39.5375 22.78375 -41.875 23.1875 C-52.60825048 25.26025588 -60.58323707 28.80378361 -67 38 C-68.63981233 40.58138199 -69.88440985 43.15421217 -71 46 C-71.2990625 46.74121094 -71.598125 47.48242188 -71.90625 48.24609375 C-76.22904507 61.07438837 -75.82626977 77.77693553 -70 90 C-64.08842987 100.20804285 -54.99652834 105.79999792 -43.95703125 109.2734375 C-38.20208948 110.68746546 -32.57982131 111.13046022 -26.66625977 111.17700195 C-25.96917404 111.18357315 -25.27208832 111.19014435 -24.55387878 111.19691467 C-22.26638644 111.21648229 -19.97895944 111.22827744 -17.69140625 111.23828125 C-16.90138655 111.24235678 -16.11136684 111.2464323 -15.29740715 111.25063133 C-11.10981389 111.27142898 -6.92225272 111.2857538 -2.73461914 111.29516602 C1.54495071 111.30617475 5.82399267 111.34052807 10.10337734 111.38033772 C13.43328167 111.406757 16.7630654 111.41488032 20.09306526 111.41844749 C21.66800536 111.42325402 23.24294232 111.43469326 24.81777763 111.45348549 C39.86389714 111.62177051 55.02220011 110.10175894 67 100 C75.73231366 91.02969876 79 79.31154208 79 67.02734375 C78.602623 55.69340258 76.63421807 46.33394719 70 37 C69.4225 36.113125 68.845 35.22625 68.25 34.3125 C55.63788037 21.35004371 34.16950373 22.80847519 18 22 C18 36.85 18 51.7 18 67 C12.06 67 6.12 67 0 67 C0 44.89 0 22.78 0 0 Z " fill="#0000DD" transform="translate(398,130)"/>
<path d="M0 0 C10.56 0 21.12 0 32 0 C32 39.6 32 79.2 32 120 C-30.04 120 -92.08 120 -156 120 C-156 107.79 -156 95.58 -156 83 C-104.52 83 -53.04 83 0 83 C0 55.61 0 28.22 0 0 Z " fill="#0000DC" transform="translate(181,1661)"/>
<path d="M0 0 C5.94 0 11.88 0 18 0 C18 31.35 18 62.7 18 95 C39.45 95 60.9 95 83 95 C83 68.27 83 41.54 83 14 C89.27 14 95.54 14 102 14 C102 40.73 102 67.46 102 95 C124.11 95 146.22 95 169 95 C169 63.65 169 32.3 169 0 C174.94 0 180.88 0 187 0 C187 38.61 187 77.22 187 117 C125.29 117 63.58 117 0 117 C0 78.39 0 39.78 0 0 Z " fill="#0000DD" transform="translate(307,794)"/>
<path d="M0 0 C5.94 0 11.88 0 18 0 C18 31.02 18 62.04 18 94 C39.45 94 60.9 94 83 94 C83 67.27 83 40.54 83 13 C89.27 13 95.54 13 102 13 C102 39.73 102 66.46 102 94 C124.11 94 146.22 94 169 94 C169 62.98 169 31.96 169 0 C174.94 0 180.88 0 187 0 C187 37.95 187 75.9 187 115 C125.29 115 63.58 115 0 115 C0 77.05 0 39.1 0 0 Z " fill="#0000DC" transform="translate(307,966)"/>
<path d="M0 0 C5.94 0 11.88 0 18 0 C18 31.68 18 63.36 18 96 C39.45 96 60.9 96 83 96 C83 68.94 83 41.88 83 14 C89.27 14 95.54 14 102 14 C102 41.06 102 68.12 102 96 C124.11 96 146.22 96 169 96 C169 64.32 169 32.64 169 0 C174.94 0 180.88 0 187 0 C187 38.28 187 76.56 187 116 C125.29 116 63.58 116 0 116 C0 77.72 0 39.44 0 0 Z " fill="#0000DC" transform="translate(307,1822)"/>
<path d="M0 0 C61.71 0 123.42 0 187 0 C187 6.93 187 13.86 187 21 C125.29 21 63.58 21 0 21 C0 14.07 0 7.14 0 0 Z " fill="#0000DC" transform="translate(307,1351)"/>
<path d="M0 0 C61.71 0 123.42 0 187 0 C187 6.93 187 13.86 187 21 C125.29 21 63.58 21 0 21 C0 14.07 0 7.14 0 0 Z " fill="#0000DC" transform="translate(307,529)"/>
</svg>
